name Walk5.mot
datacolumns 19
datarows 25
range 2.41000000 2.53000000
endheader

                time	   L_ground_force_vx	   L_ground_force_vy	   L_ground_force_vz	   L_ground_force_px	   L_ground_force_py	   L_ground_force_pz	   R_ground_force_vx	   R_ground_force_vy	   R_ground_force_vz	   R_ground_force_px	   R_ground_force_py	   R_ground_force_pz	   L_ground_torque_x	   L_ground_torque_y	   L_ground_torque_z	   R_ground_torque_x	   R_ground_torque_y	   R_ground_torque_z	
          2.41000000	          0.00000000	          0.00000000	          0.00000000	         -0.00000000	          0.00000000	         -0.00000000	         -1.68716451	          0.51098848	          1.08261832	          0.08681083	          0.00000000	          0.01774565	          0.00000000	          0.00000000	          0.00000000	          0.00000000	          0.02372511	          0.00000000	
          2.41500000	          0.00000000	          0.00000000	          0.00000000	         -0.00000000	          0.00000000	         -0.00000000	         -2.21726405	         -2.82511822	          0.77748557	          0.05831028	          0.00000000	          0.01164249	          0.00000000	          0.00000000	          0.00000000	          0.00000000	          0.02534700	          0.00000000	
          2.42000000	          0.00000000	          0.00000000	         -0.00000000	         -0.00000000	          0.00000000	         -0.00000000	         -2.38184784	         -4.74106613	          0.52032014	          0.03542179	          0.00000000	          0.00680787	          0.00000000	          0.00000000	          0.00000000	          0.00000000	          0.02438245	          0.00000000	
          2.42500000	          0.00000000	          0.00000000	         -0.00000000	         -0.00000000	          0.00000000	         -0.00000000	         -2.29901687	         -5.59476541	          0.31425390	          0.01794241	          0.00000000	          0.00316910	          0.00000000	          0.00000000	          0.00000000	          0.00000000	          0.02183554	          0.00000000	
          2.43000000	          0.00000000	          0.00000000	         -0.00000000	         -0.00000000	          0.00000000	         -0.00000000	         -2.06407454	         -5.69974792	          0.15725393	          0.00531420	          0.00000000	          0.00058499	          0.00000000	          0.00000000	          0.00000000	          0.00000000	          0.01847534	          0.00000000	
          2.43500000	          0.00000000	          0.00000000	         -0.00000000	         -0.00000000	          0.00000000	         -0.00000000	         -1.75016724	         -5.31629002	          0.04413601	         -0.00320432	          0.00000000	         -0.00111841	          0.00000000	          0.00000000	          0.00000000	          0.00000000	          0.01485932	          0.00000000	
          2.44000000	          0.00000000	          0.00000000	         -0.00000000	         -0.00000000	          0.00000000	         -0.00000000	         -1.41044750	         -4.64993165	         -0.03189495	         -0.00841366	          0.00000000	         -0.00212232	          0.00000000	          0.00000000	          0.00000000	          0.00000000	          0.01136525	          0.00000000	
          2.44500000	          0.00000000	          0.00000000	         -0.00000000	         -0.00000000	          0.00000000	         -0.00000000	         -1.08104246	         -3.85485556	         -0.07812963	         -0.01108889	          0.00000000	         -0.00259826	          0.00000000	          0.00000000	          0.00000000	          0.00000000	          0.00822572	          0.00000000	
          2.45000000	          0.00000000	          0.00000000	         -0.00000000	         -0.00000000	          0.00000000	         -0.00000000	         -0.78430401	         -3.04011620	         -0.10159992	         -0.01192746	          0.00000000	         -0.00269798	          0.00000000	          0.00000000	          0.00000000	          0.00000000	          0.00556184	          0.00000000	
          2.45500000	         -0.00000000	         -0.00000000	         -0.00000000	         -0.00000000	          0.00000000	         -0.00000000	         -0.53198243	         -2.27720320	         -0.10861564	         -0.01152191	          0.00000000	         -0.00254855	          0.00000000	          0.00000000	          0.00000000	          0.00000000	          0.00341367	          0.00000000	
          2.46000000	         -0.00000000	         -0.00000000	         -0.00000000	         -0.00000000	          0.00000000	         -0.00000000	         -0.32810010	         -1.60786263	         -0.10452450	         -0.01035059	          0.00000000	         -0.00225116	          0.00000000	          0.00000000	          0.00000000	          0.00000000	          0.00176611	          0.00000000	
          2.46500000	         -0.00000000	         -0.00000000	         -0.00000000	         -0.00000000	          0.00000000	         -0.00000000	         -0.17140557	         -1.05146500	         -0.09363431	         -0.00878084	          0.00000000	         -0.00188241	          0.00000000	         -0.00000000	          0.00000000	          0.00000000	          0.00056989	          0.00000000	
          2.47000000	         -0.00000000	         -0.00000000	         -0.00000000	         -0.00000000	          0.00000000	         -0.00000000	         -0.05736429	         -0.61149981	         -0.07924530	         -0.00707973	          0.00000000	         -0.00149707	          0.00000000	         -0.00000000	          0.00000000	          0.00000000	         -0.00024230	          0.00000000	
          2.47500000	         -0.00000000	         -0.00000000	         -0.00000000	          0.00000000	          0.00000000	          0.00000000	          0.02030499	         -0.28099641	         -0.06375056	         -0.00542892	          0.00000000	         -0.00113155	          0.00000000	         -0.00000000	          0.00000000	          0.00000000	         -0.00074398	          0.00000000	
          2.48000000	         -0.00000000	         -0.00000000	         -0.00000000	          0.00000000	          0.00000000	          0.00000000	          0.06850692	         -0.04682757	         -0.04877218	         -0.00394093	          0.00000000	         -0.00080766	          0.00000000	         -0.00000000	          0.00000000	          0.00000000	         -0.00100685	          0.00000000	
          2.48500000	         -0.00000000	         -0.00000000	         -0.00000000	          0.00000000	          0.00000000	          0.00000000	          0.09399981	          0.10704387	         -0.03530955	         -0.00267503	          0.00000000	         -0.00053608	          0.00000000	         -0.00000000	          0.00000000	          0.00000000	         -0.00109580	          0.00000000	
          2.49000000	         -0.00000000	         -0.00000000	          0.00000000	          0.00000000	          0.00000000	          0.00000000	          0.10291366	          0.19725276	         -0.02388367	         -0.00165167	          0.00000000	         -0.00031952	          0.00000000	         -0.00000000	          0.00000000	          0.00000000	         -0.00106618	          0.00000000	
          2.49500000	         -0.00000000	         -0.00000000	          0.00000000	          0.00000000	          0.00000000	          0.00000000	          0.10049072	          0.23950167	         -0.01466756	         -0.00086478	          0.00000000	         -0.00015538	          0.00000000	         -0.00000000	          0.00000000	          0.00000000	         -0.00096286	          0.00000000	
          2.50000000	         -0.00000000	         -0.00000000	          0.00000000	          0.00000000	          0.00000000	          0.00000000	          0.09098933	          0.24765339	         -0.00759742	         -0.00029177	          0.00000000	         -0.00003783	          0.00000000	         -0.00000000	          0.00000000	          0.00000000	         -0.00082045	          0.00000000	
          2.50500000	         -0.00000000	         -0.00000000	          0.00000000	          0.00000000	          0.00000000	          0.00000000	          0.07770011	          0.23329455	         -0.00246262	          0.00009877	          0.00000000	          0.00004055	          0.00000000	         -0.00000000	          0.00000000	          0.00000000	         -0.00066424	          0.00000000	
          2.51000000	         -0.00000000	         -0.00000000	          0.00000000	          0.00000000	          0.00000000	          0.00000000	          0.06303286	          0.20563572	          0.00102500	          0.00034140	          0.00000000	          0.00008760	          0.00000000	         -0.00000000	          0.00000000	          0.00000000	         -0.00051153	          0.00000000	
          2.51500000	         -0.00000000	         -0.00000000	          0.00000000	          0.00000000	          0.00000000	          0.00000000	          0.04864190	          0.17163535	          0.00318047	          0.00046999	          0.00000000	          0.00011085	          0.00000000	         -0.00000000	          0.00000000	          0.00000000	         -0.00037315	          0.00000000	
          2.52000000	         -0.00000000	         -0.00000000	          0.00000000	          0.00000000	          0.00000000	          0.00000000	          0.03556627	          0.13625729	          0.00431120	          0.00051529	          0.00000000	          0.00011699	          0.00000000	         -0.00000000	          0.00000000	          0.00000000	         -0.00025489	          0.00000000	
          2.52500000	          0.00000000	          0.00000000	          0.00000000	          0.00000000	          0.00000000	          0.00000000	          0.02436825	          0.10279372	          0.00469535	          0.00050358	          0.00000000	          0.00011167	          0.00000000	         -0.00000000	          0.00000000	          0.00000000	         -0.00015890	          0.00000000	
          2.53000000	          0.00000000	          0.00000000	          0.00000000	          0.00000000	          0.00000000	          0.00000000	          0.01525995	          0.07320444	          0.00457035	          0.00045625	          0.00000000	          0.00009943	          0.00000000	         -0.00000000	          0.00000000	          0.00000000	         -0.00008477	          0.00000000	
